HIERARCHY
ROOT Hips
{
  OFFSET 5.72205e-005 65.662 3.42586
  CHANNELS 6 Xposition Yposition Zposition Zrotation Xrotation Yrotation
  JOINT Chest
  {
    OFFSET 0 8.7983 -4.7612
    CHANNELS 3 Zrotation Xrotation Yrotation
    JOINT Chest2
    {
      OFFSET 0 8.0291 0.4195
      CHANNELS 3 Zrotation Xrotation Yrotation
      JOINT Chest3
      {
        OFFSET 0 9.9351 -2.2114
        CHANNELS 3 Zrotation Xrotation Yrotation
        JOINT Neck
        {
          OFFSET 0 22.3885 -0.4656
          CHANNELS 3 Zrotation Xrotation Yrotation
          JOINT Head
          {
            OFFSET -0.0001 12.643 3.4389
            CHANNELS 3 Zrotation Xrotation Yrotation
            End Site
            {
              OFFSET 0.0001 17.6655 0.5274
            }
          }
        }
        JOINT LeftCollar
        {
          OFFSET 2.2603 21.606 7.4023
          CHANNELS 3 Zrotation Xrotation Yrotation
          JOINT LeftShoulder
          {
            OFFSET 13.5163 -1.1332 -5.0146
            CHANNELS 3 Zrotation Xrotation Yrotation
            JOINT LeftElbow
            {
              OFFSET -0.0995 -28.05 -0.2431
              CHANNELS 3 Zrotation Xrotation Yrotation
              JOINT LeftWrist
              {
                OFFSET 0.0679 -23.3996 -0.1402
                CHANNELS 3 Zrotation Xrotation Yrotation
                JOINT LeftFinger1
                {
                  OFFSET 0.7932 -9.069 2.5189
                  CHANNELS 3 Zrotation Xrotation Yrotation
                  JOINT LeftFinger11
                  {
                    OFFSET -0.8272 -3.3923 0.5977
                    CHANNELS 3 Zrotation Xrotation Yrotation
                    JOINT LeftFinger12
                    {
                      OFFSET -0.5649 -2.3158 0.4082
                      CHANNELS 3 Zrotation Xrotation Yrotation
                      End Site
                      {
                        OFFSET -0.4919 -1.6479 0.2673
                      }
                    }
                  }
                }
                JOINT LeftFinger2
                {
                  OFFSET 0.9159 -9.2044 0.2193
                  CHANNELS 3 Zrotation Xrotation Yrotation
                  JOINT LeftFinger21
                  {
                    OFFSET 0.0117 -4.1944 -0.0248
                    CHANNELS 3 Zrotation Xrotation Yrotation
                    JOINT LeftFinger22
                    {
                      OFFSET 0.0071 -2.3249 -0.0142
                      CHANNELS 3 Zrotation Xrotation Yrotation
                      End Site
                      {
                        OFFSET -0.1475 -2.0882 0.0028
                      }
                    }
                  }
                }
                JOINT LeftFinger3
                {
                  OFFSET 0.6113 -8.7231 -2.0637
                  CHANNELS 3 Zrotation Xrotation Yrotation
                  JOINT LeftFinger31
                  {
                    OFFSET -0.1927 -3.8059 -0.2383
                    CHANNELS 3 Zrotation Xrotation Yrotation
                    JOINT LeftFinger32
                    {
                      OFFSET -0.1091 -2.1688 -0.1362
                      CHANNELS 3 Zrotation Xrotation Yrotation
                      End Site
                      {
                        OFFSET -0.2358 -1.9176 -0.0906
                      }
                    }
                  }
                }
                JOINT LeftFinger4
                {
                  OFFSET -0.6151 -8.0947 -3.5641
                  CHANNELS 3 Zrotation Xrotation Yrotation
                  JOINT LeftFinger41
                  {
                    OFFSET -0.4882 -2.341 -0.6462
                    CHANNELS 3 Zrotation Xrotation Yrotation
                    JOINT LeftFinger42
                    {
                      OFFSET -0.3575 -1.7167 -0.4742
                      CHANNELS 3 Zrotation Xrotation Yrotation
                      End Site
                      {
                        OFFSET -0.4187 -1.5237 -0.3496
                      }
                    }
                  }
                }
                JOINT LeftFinger0
                {
                  OFFSET -1.42 -1.8761 1.4223
                  CHANNELS 3 Zrotation Xrotation Yrotation
                  JOINT LeftFinger01
                  {
                    OFFSET -1.1471 -3.4929 2.6334
                    CHANNELS 3 Zrotation Xrotation Yrotation
                    JOINT LeftFinger02
                    {
                      OFFSET -0.823 -2.3 1.6571
                      CHANNELS 3 Zrotation Xrotation Yrotation
                      End Site
                      {
                        OFFSET -0.5822 -1.6914 1.1582
                      }
                    }
                  }
                }
              }
            }
          }
        }
        JOINT RightCollar
        {
          OFFSET -2.2603 21.606 7.4023
          CHANNELS 3 Zrotation Xrotation Yrotation
          JOINT RightShoulder
          {
            OFFSET -13.5187 -1.1334 -5.0155
            CHANNELS 3 Zrotation Xrotation Yrotation
            JOINT RightElbow
            {
              OFFSET 0.0994 -28.0499 -0.2431
              CHANNELS 3 Zrotation Xrotation Yrotation
              JOINT RightWrist
              {
                OFFSET -0.0679 -23.3996 -0.1402
                CHANNELS 3 Zrotation Xrotation Yrotation
                JOINT RightFinger1
                {
                  OFFSET -0.7932 -9.0691 2.5189
                  CHANNELS 3 Zrotation Xrotation Yrotation
                  JOINT RightFinger11
                  {
                    OFFSET 0.8272 -3.3923 0.5977
                    CHANNELS 3 Zrotation Xrotation Yrotation
                    JOINT RightFinger12
                    {
                      OFFSET 0.565 -2.3158 0.4082
                      CHANNELS 3 Zrotation Xrotation Yrotation
                      End Site
                      {
                        OFFSET 0.4919 -1.6479 0.2673
                      }
                    }
                  }
                }
                JOINT RightFinger2
                {
                  OFFSET -0.916 -9.2044 0.2193
                  CHANNELS 3 Zrotation Xrotation Yrotation
                  JOINT RightFinger21
                  {
                    OFFSET -0.0117 -4.1944 -0.0248
                    CHANNELS 3 Zrotation Xrotation Yrotation
                    JOINT RightFinger22
                    {
                      OFFSET -0.0071 -2.3249 -0.0142
                      CHANNELS 3 Zrotation Xrotation Yrotation
                      End Site
                      {
                        OFFSET 0.1475 -2.0882 0.0028
                      }
                    }
                  }
                }
                JOINT RightFinger3
                {
                  OFFSET -0.6113 -8.7231 -2.0637
                  CHANNELS 3 Zrotation Xrotation Yrotation
                  JOINT RightFinger31
                  {
                    OFFSET 0.1927 -3.8059 -0.2383
                    CHANNELS 3 Zrotation Xrotation Yrotation
                    JOINT RightFinger32
                    {
                      OFFSET 0.1091 -2.1688 -0.1362
                      CHANNELS 3 Zrotation Xrotation Yrotation
                      End Site
                      {
                        OFFSET 0.2358 -1.9176 -0.0906
                      }
                    }
                  }
                }
                JOINT RightFinger4
                {
                  OFFSET 0.6151 -8.0947 -3.564
                  CHANNELS 3 Zrotation Xrotation Yrotation
                  JOINT RightFinger41
                  {
                    OFFSET 0.4882 -2.341 -0.6462
                    CHANNELS 3 Zrotation Xrotation Yrotation
                    JOINT RightFinger42
                    {
                      OFFSET 0.3574 -1.7166 -0.4742
                      CHANNELS 3 Zrotation Xrotation Yrotation
                      End Site
                      {
                        OFFSET 0.4187 -1.5237 -0.3496
                      }
                    }
                  }
                }
                JOINT RightFinger0
                {
                  OFFSET 1.4199 -1.8761 1.4221
                  CHANNELS 3 Zrotation Xrotation Yrotation
                  JOINT RightFinger01
                  {
                    OFFSET 1.1472 -3.4929 2.6336
                    CHANNELS 3 Zrotation Xrotation Yrotation
                    JOINT RightFinger02
                    {
                      OFFSET 0.8229 -2.3 1.6571
                      CHANNELS 3 Zrotation Xrotation Yrotation
                      End Site
                      {
                        OFFSET 0.5822 -1.6914 1.1582
                      }
                    }
                  }
                }
              }
            }
          }
        }
      }
    }
  }
  JOINT RightHip
  {
    OFFSET -9.412 3.9771 -0.7758
    CHANNELS 3 Zrotation Xrotation Yrotation
    JOINT RightKnee
    {
      OFFSET -0.7531 -40.938 0
      CHANNELS 3 Zrotation Xrotation Yrotation
      JOINT RightAnkle
      {
        OFFSET 0 -40.1986 0
        CHANNELS 3 Zrotation Xrotation Yrotation
        JOINT RightToe
        {
          OFFSET 0 -4.4182 9.239
          CHANNELS 3 Zrotation Xrotation Yrotation
          End Site
          {
            OFFSET 0 0 6.1981
          }
        }
      }
    }
  }
  JOINT LeftHip
  {
    OFFSET 9.4119 3.9773 -0.7758
    CHANNELS 3 Zrotation Xrotation Yrotation
    JOINT LeftKnee
    {
      OFFSET 0.7532 -40.9383 0
      CHANNELS 3 Zrotation Xrotation Yrotation
      JOINT LeftAnkle
      {
        OFFSET 0 -40.1986 0
        CHANNELS 3 Zrotation Xrotation Yrotation
        JOINT LeftToe
        {
          OFFSET 0 -4.4182 9.239
          CHANNELS 3 Zrotation Xrotation Yrotation
          End Site
          {
            OFFSET 0 0 6.1981
          }
        }
      }
    }
  }
}
MOTION
Frames:	6
Frame Time:	0.0333333
5.72205e-005 65.662 3.42586 0 0 -0 0 0 -0 0 0 -0 0 0 -0 0 0 -0 0 0 -0 0 0 -12.5014 88.1196 14.2451 10.6914 -0.00160068 -0.00239207 0.000740045 -8.4365e-005 7.00714e-005 -9.52055e-007 9.93923e-017 -1.98785e-016 -1.59028e-015 9.93923e-017 -5.96354e-016 -1.59028e-015 -9.93923e-017 -5.96354e-016 -1.59028e-015 9.93923e-017 -1.98785e-016 -1.59028e-015 -0.0128176 0.00232552 8.52707e-005 9.93923e-017 5.96354e-016 -0 9.93923e-017 -1.98785e-016 -1.59028e-015 -0.0160551 0.00299681 0.000857156 -2.48481e-016 0 3.18055e-015 9.93923e-017 -1.98785e-016 -1.59028e-015 -0.0125865 0.0031206 0.00282719 0 1.98785e-016 -0 9.93923e-017 -1.98785e-016 -1.59028e-015 9.93923e-017 -5.96354e-016 -1.59028e-015 -9.93923e-017 -5.96354e-016 -1.59028e-015 -0.865644 0.16582 7.03859 -88.0329 10.2057 -10.5567 0.0015593 -0.00248883 -0.000788628 7.87605e-005 4.10553e-005 1.24965e-005 -3.97569e-016 -7.95139e-016 3.18055e-015 -1.98785e-016 -3.97569e-016 3.18055e-015 -1.98785e-016 0 3.18055e-015 -3.97569e-016 -7.95139e-016 3.18055e-015 0.0129473 0.00231697 -8.70038e-005 9.93923e-017 -7.95139e-016 1.59028e-015 -3.97569e-016 -7.95139e-016 3.18055e-015 0.0163314 0.00303369 -0.000872333 3.97569e-016 7.95139e-016 -3.18055e-015 -3.97569e-016 -7.95139e-016 3.18055e-015 0.0145763 0.00367772 -0.00326275 9.93923e-017 -3.97569e-016 -0 -3.97569e-016 -7.95139e-016 3.18055e-015 -1.98785e-016 -3.97569e-016 3.18055e-015 -1.98785e-016 0 3.18055e-015 3.42482 1.32465 -0.0626183 0.000117508 0.717283 0.000978199 -3.4257 -2.04197 -0.0604716 6.47761e-025 0 -0 -3.42483 1.34017 0.0627307 -0.000193936 0.682302 -0.0013703 3.42574 -2.02253 0.0595886 -8.45714e-024 0 -7.40531e-025 
4.27731 24.4941 -39.116 133.339 65.9141 -0.0113221 -0.0106995 -0.320892 -0.207397 -0.0225697 -0.641746 -0.414837 -0.0225666 -0.641742 -0.414851 2.53039e-005 32.5913 -4.76086e-005 -4.96053e-006 -29.4009 -8.35828e-006 -14.1058 2.54774 0.70814 82.3041 -43.5804 3.62278 -11.913 -29.8351 6.52992 -20.9816 -24.7253 24.5992 9.54166e-015 3.18055e-015 -3.18055e-015 3.18055e-015 3.18055e-015 -0 3.18055e-015 0 -0 9.54166e-015 3.18055e-015 -3.18055e-015 -0.0128532 0.00233134 8.58341e-005 3.34939e-006 2.97856e-006 1.5551e-006 9.54166e-015 3.18055e-015 -3.18055e-015 -0.0160496 0.0029914 0.000862371 -5.29669e-031 -3.18055e-015 -9.54166e-015 9.54166e-015 3.18055e-015 -3.18055e-015 -0.0125228 0.00310386 0.00281559 5.56597e-015 1.59028e-015 -0 9.54166e-015 3.18055e-015 -3.18055e-015 3.18055e-015 3.18055e-015 -0 3.18055e-015 0 -0 13.2589 2.59977 -5.922 -82.4583 -47.5627 -3.9257 11.934 -29.6709 -6.81022 22.3998 -23.989 -23.8481 -3.50043e-006 -2.74778e-006 -3.31727e-006 -5.01881e-006 -5.20355e-006 7.25786e-006 -1.75021e-006 -1.14178e-006 -1.65863e-006 -3.50043e-006 -2.74778e-006 -3.31727e-006 0.0129748 0.00232035 -8.51457e-005 -2.72411e-006 -2.16841e-006 1.30038e-006 -3.50043e-006 -2.74778e-006 -3.31727e-006 0.0163379 0.00303209 -0.000870465 -2.58687e-007 -1.90448e-006 -1.53928e-006 -3.50043e-006 -2.74778e-006 -3.31727e-006 0.0145719 0.00366455 -0.00325563 -4.99173e-006 -2.12797e-007 -3.43691e-006 -3.50043e-006 -2.74778e-006 -3.31727e-006 -5.01881e-006 -5.20355e-006 7.25786e-006 -1.75021e-006 -1.14178e-006 -1.65863e-006 -32.1383 -19.7786 -23.3351 -11.9349 56.2163 15.4091 -15.4169 29.0787 18.9185 -1.59028e-015 3.18055e-015 4.77083e-015 31.8311 -20.3052 23.3921 11.5903 55.5478 -14.9777 15.8793 30.2173 -19.1384 -1.0425e-005 5.90899e-006 3.97467e-006 
-1.68115 -3.17633 -55.8092 13.2582 84.4211 -179.931 -0.0264855 -0.403271 -0.300325 -0.0550856 -0.806391 -0.600865 -0.0550891 -0.806417 -0.600864 -7.06832e-005 47.2576 0.000100652 5.26858e-006 -43.7675 2.43099e-006 -20.7263 3.36761 6.77834 81.646 -69.6299 2.18183 -18.9937 -43.4281 7.40934 -30.7409 -35.8263 34.9404 5.56597e-015 -1.59028e-015 -0 2.5842e-015 -1.59028e-015 -3.18055e-015 5.76476e-015 0 -3.18055e-015 5.56597e-015 -1.59028e-015 -0 -0.0128288 0.00232614 8.56775e-005 1.00907e-007 -2.02101e-008 8.40532e-007 5.56597e-015 -1.59028e-015 -0 -0.0160412 0.00299388 0.000858452 -7.35503e-015 -2.38542e-015 -3.18055e-015 5.56597e-015 -1.59028e-015 -0 -0.012532 0.00310926 0.00281605 6.85807e-015 -2.38542e-015 6.36111e-015 5.56597e-015 -1.59028e-015 -0 2.5842e-015 -1.59028e-015 -3.18055e-015 5.76476e-015 0 -3.18055e-015 19.8532 3.38522 -11.8901 -82.4925 -73.5761 -3.48408 19.0127 -43.177 -7.791 32.9453 -34.813 -33.6821 -2.04621e-006 -1.00918e-006 6.57451e-007 -1.00156e-005 -6.01601e-007 5.65782e-007 9.38571e-006 2.78911e-007 3.57882e-007 -2.04621e-006 -1.00918e-006 6.57451e-007 0.0129373 0.00231478 -8.56911e-005 4.47266e-015 -7.95139e-016 -0 -2.04621e-006 -1.00918e-006 6.57451e-007 0.0163624 0.00304137 -0.000875851 6.75054e-006 -1.60249e-007 6.09466e-007 -2.04621e-006 -1.00918e-006 6.57451e-007 0.0146313 0.00369142 -0.0032742 1.68967e-015 1.59028e-015 -0 -2.04621e-006 -1.00918e-006 6.57451e-007 -1.00156e-005 -6.01601e-007 5.65782e-007 9.38571e-006 2.78911e-007 3.57882e-007 -53.6566 -28.1078 -36.2248 -56.7621 74.901 58.6481 -31.5155 41.8044 32.7187 -1.63395e-006 4.00878e-007 -1.75908e-007 53.5014 -27.5862 36.0614 56.0073 74.8179 -57.9395 31.3354 41.5196 -32.5519 2.38542e-015 -3.18055e-015 -3.18055e-015 
-1.08388 3.61476 -52.3259 -179.651 88.9936 -0.355027 -0.0232982 -0.247339 -0.27974 -0.0478048 -0.494586 -0.559597 -0.047804 -0.494557 -0.559589 -0.000427748 43.9989 0.000671792 6.27629e-008 -43.1028 -2.78349e-007 -19.0121 2.70878 5.66657 81.4014 -63.8403 2.12697 -17.6835 -41.1574 7.08305 -27.9634 -33.2447 33.0411 1.72066e-006 -6.33449e-007 -9.13467e-007 1.38635e-007 1.27853e-006 1.80885e-006 -4.68195e-006 3.3343e-008 3.71363e-007 1.72066e-006 -6.33449e-007 -9.13467e-007 -0.0128503 0.00233034 8.66491e-005 -1.63008e-008 0 -2.12807e-007 1.72066e-006 -6.33449e-007 -9.13467e-007 -0.0160362 0.00299319 0.000858911 3.44795e-006 1.71515e-006 -1.72026e-006 1.72066e-006 -6.33449e-007 -9.13467e-007 -0.0125504 0.00311334 0.00281809 1.74452e-006 -6.32404e-007 -5.9402e-007 1.72066e-006 -6.33449e-007 -9.13467e-007 1.38635e-007 1.27853e-006 1.80885e-006 -4.68195e-006 3.3343e-008 3.71363e-007 18.1516 2.74618 -10.8249 -81.8828 -67.8002 -2.98367 17.686 -40.9085 -7.46067 29.9825 -32.3357 -31.9203 1.11878e-014 -3.97569e-016 1.98785e-016 1.43684e-014 0 -3.97569e-016 8.00729e-015 -7.95139e-016 -3.97569e-016 1.11878e-014 -3.97569e-016 1.98785e-016 0.012967 0.00231749 -8.75213e-005 9.38636e-015 -7.95139e-016 5.96354e-016 1.11878e-014 -3.97569e-016 1.98785e-016 0.0163289 0.00303284 -0.000872796 1.13432e-014 3.97569e-016 -0 1.11878e-014 -3.97569e-016 1.98785e-016 0.0146493 0.00369503 -0.00327525 -4.39867e-008 2.14341e-007 -1.06608e-006 1.11878e-014 -3.97569e-016 1.98785e-016 1.43684e-014 0 -3.97569e-016 8.00729e-015 -7.95139e-016 -3.97569e-016 -48.3446 -26.3724 -33.1847 -39.8429 72.199 42.1223 -27.2338 39.0314 28.9918 -2.13359e-007 1.32048e-007 7.78409e-011 48.338 -26.377 33.15 39.7567 72.2235 -42.0569 27.2082 39.0635 -28.9592 3.97569e-016 5.96039e-008 3.18055e-015 
-1.08388 3.61471 -52.3259 -179.651 88.9939 -0.355139 -0.0239819 -0.134608 -0.27973 -0.0486218 -0.269091 -0.559529 -0.0486216 -0.269095 -0.559529 -0.00068126 43.9988 0.00107495 -7.56533e-009 -45.1852 -1.11923e-007 -18.8249 2.3125 5.86279 81.4011 -63.84 2.1267 -18.0449 -41.7528 6.81936 -27.5087 -33.1482 33.3119 -2.2239e-015 7.95139e-016 -0 4.16827e-015 0 -9.93923e-017 9.87711e-016 7.95139e-016 -9.93923e-017 -2.2239e-015 7.95139e-016 -0 -0.012809 0.00232161 8.42662e-005 8.69683e-017 7.95139e-016 3.97569e-016 -2.2239e-015 7.95139e-016 -0 -0.0160712 0.00299967 0.000856042 4.72735e-015 0 -7.95139e-016 -2.2239e-015 7.95139e-016 -0 -0.0126265 0.00312896 0.00283543 5.59082e-016 7.95139e-016 -6.95746e-016 -2.2239e-015 7.95139e-016 -0 4.16827e-015 0 -9.93923e-017 9.87711e-016 7.95139e-016 -9.93923e-017 17.9684 2.36063 -11.0407 -81.8829 -67.8003 -2.98374 18.0303 -41.4919 -7.21193 29.5269 -32.2759 -32.2018 -2.36057e-016 7.95139e-016 7.95139e-016 2.9445e-015 3.97569e-016 -0 -3.42282e-015 0 1.98785e-016 -2.36057e-016 7.95139e-016 7.95139e-016 0.012957 0.00231837 -8.50921e-005 -2.44132e-015 -7.95139e-016 -0 -2.36057e-016 7.95139e-016 7.95139e-016 0.0163075 0.00303038 -0.000871144 -5.20567e-015 -3.97569e-016 -1.98785e-016 -2.36057e-016 7.95139e-016 7.95139e-016 0.0145669 0.00367282 -0.00325667 2.06239e-006 -7.77779e-007 2.21033e-006 -2.36057e-016 7.95139e-016 7.95139e-016 2.9445e-015 3.97569e-016 -0 -3.42282e-015 0 1.98785e-016 -48.3446 -26.3724 -33.1847 -39.8428 72.199 42.1222 -27.2338 39.0315 28.9918 3.20039e-007 4.03366e-008 -1.1526e-010 48.338 -26.3768 33.15 39.7563 72.2234 -42.0567 27.2082 39.0634 -28.9592 -2.094e-008 1.04373e-008 1.52818e-006 
-1.08388 3.61476 -52.3259 -179.651 88.9936 -0.355028 -0.0246485 -0.0217686 -0.279516 -0.0494028 -0.0434117 -0.559041 -0.0494027 -0.0434169 -0.559041 -3.62796e-005 43.9984 5.74576e-005 -1.5684e-007 -47.2776 -1.07043e-007 -18.6364 1.91682 6.05924 81.4012 -63.8401 2.12683 -18.4137 -42.3468 6.54799 -27.055 -33.0499 33.5815 -8.82107e-016 2.38542e-015 6.95746e-016 -7.19352e-015 1.59028e-015 3.97569e-016 -3.96948e-015 7.95139e-016 7.95139e-016 -8.82107e-016 2.38542e-015 6.95746e-016 -0.0128367 0.00232767 8.59638e-005 -9.69075e-016 -7.95139e-016 -9.93923e-017 -8.82107e-016 2.38542e-015 6.95746e-016 -0.016021 0.00298809 0.000855476 1.11816e-015 0 9.93923e-017 -8.82107e-016 2.38542e-015 6.95746e-016 -0.0126063 0.00312565 0.00283199 -1.49772e-014 -2.38542e-015 5.96354e-016 -8.82107e-016 2.38542e-015 6.95746e-016 -7.19352e-015 1.59028e-015 3.97569e-016 -3.96948e-015 7.95139e-016 7.95139e-016 17.7836 1.97506 -11.2586 -81.8829 -67.8002 -2.9837 18.3814 -42.0745 -6.95607 29.0718 -32.2141 -32.4826 7.53781e-006 2.42849e-007 -3.97676e-007 1.49089e-016 0 -0 3.08806e-008 4.259e-007 7.46291e-007 7.53781e-006 2.42849e-007 -3.97676e-007 0.0129044 0.00230933 -8.6187e-005 1.76271e-008 -6.40228e-007 4.26453e-007 7.53781e-006 2.42849e-007 -3.97676e-007 0.0162863 0.00302607 -0.000871728 1.14847e-005 -2.37402e-007 -4.47841e-007 7.53781e-006 2.42849e-007 -3.97676e-007 0.0146612 0.00369923 -0.00328018 1.15201e-005 -2.37038e-007 4.05386e-007 7.53781e-006 2.42849e-007 -3.97676e-007 1.49089e-016 0 -0 3.08806e-008 4.259e-007 7.46291e-007 -48.3446 -26.3726 -33.1847 -39.8432 72.1991 42.1225 -27.2338 39.0314 28.9918 -2.22639e-014 -1.13307e-014 -0 48.3381 -26.3768 33.1501 39.7564 72.2234 -42.0567 27.2082 39.0634 -28.9592 6.50798e-008 -7.91646e-008 3.05185e-006 
